<svg xmlns="http://www.w3.org/2000/svg" width="375" viewBox="0 0 375 225" height="225" version="1.0"><defs><clipPath id="a"><path d="M 113.851562 21 L 260.851562 21 L 260.851562 95 L 113.851562 95 Z M 113.851562 21"/></clipPath><clipPath id="b"><path d="M 113.851562 17.300781 L 260.851562 17.300781 L 260.851562 123.800781 L 113.851562 123.800781 Z M 113.851562 17.300781"/></clipPath></defs><g clip-path="url(#a)"><path fill="#D42AC8" d="M 257.316406 93.773438 C 249.859375 88.125 242.929688 82.855469 236.480469 77.945312 C 228.53125 71.898438 221.324219 66.414062 214.769531 61.472656 C 202.792969 64.484375 188.636719 69.558594 172.839844 75.226562 C 155.839844 81.320312 136.953125 88.09375 116.601562 93.773438 L 116.601562 93.769531 C 116.09375 93.914062 115.527344 93.867188 115.019531 93.601562 C 113.960938 93.046875 113.550781 91.734375 114.101562 90.667969 C 121.714844 75.996094 126.988281 63.40625 131.257812 53.210938 C 139.804688 32.800781 144.511719 21.5625 156.261719 21.589844 C 167.234375 21.617188 183.707031 32.652344 215.734375 56.75 C 223.09375 55.011719 229.679688 54.070312 235.402344 54.265625 C 252.40625 54.847656 261.714844 64.851562 260.789062 92.097656 C 260.75 93.296875 259.753906 94.246094 258.554688 94.207031 C 258.089844 94.191406 257.664062 94.03125 257.316406 93.765625 L 257.3125 93.769531 Z M 239.097656 74.464844 C 244.546875 78.613281 250.34375 83.019531 256.511719 87.695312 C 256.292969 66.867188 248.625 59.078125 235.265625 58.621094 C 230.875 58.46875 225.867188 59.058594 220.308594 60.203125 C 226.078125 64.5625 232.324219 69.3125 239.101562 74.46875 Z M 210.328125 58.132812 C 180.949219 36.09375 165.691406 25.96875 156.265625 25.945312 C 147.390625 25.921875 143.082031 36.214844 135.257812 54.902344 C 131.398438 64.121094 126.71875 75.289062 120.230469 88.214844 C 138.5 82.902344 155.738281 76.722656 171.378906 71.113281 C 185.8125 65.9375 198.894531 61.246094 210.328125 58.132812 Z M 210.328125 58.132812"/></g><g clip-path="url(#b)"><path fill="#D42AC8" d="M 192.265625 119.210938 L 255.625 90.984375 C 250.960938 82.054688 247.011719 74.277344 243.476562 67.320312 C 227.667969 36.191406 220.320312 21.726562 210.253906 21.699219 C 201.15625 21.675781 188.550781 32.652344 164.988281 53.15625 C 153.132812 63.472656 138.5625 76.15625 120.296875 91.011719 L 192.261719 119.210938 Z M 259.5 94.03125 L 193.195312 123.570312 C 192.6875 123.796875 192.089844 123.824219 191.53125 123.605469 L 115.238281 93.710938 C 114.894531 93.574219 114.582031 93.355469 114.335938 93.042969 C 113.589844 92.105469 113.734375 90.734375 114.667969 89.980469 C 134.289062 74.121094 149.722656 60.683594 162.15625 49.867188 C 186.515625 28.664062 199.546875 17.324219 210.261719 17.347656 C 223 17.378906 230.734375 32.601562 247.359375 65.339844 C 251.253906 73.015625 255.648438 81.660156 260.503906 90.933594 C 260.546875 91.003906 260.585938 91.078125 260.621094 91.15625 C 261.105469 92.257812 260.605469 93.542969 259.507812 94.03125 Z M 259.5 94.03125"/></g><g fill="#3E3094"><g><g><path d="M 11.40625 0.296875 C 9.84375 0.296875 9.0625 -0.507812 9.0625 -2.125 L 9.0625 -21.9375 L 1.90625 -21.9375 C 0.5625 -21.9375 -0.109375 -22.59375 -0.109375 -23.90625 C -0.109375 -25.207031 0.5625 -25.859375 1.90625 -25.859375 L 20.90625 -25.859375 C 22.25 -25.859375 22.921875 -25.207031 22.921875 -23.90625 C 22.921875 -22.59375 22.25 -21.9375 20.90625 -21.9375 L 13.75 -21.9375 L 13.75 -2.125 C 13.75 -0.507812 12.96875 0.296875 11.40625 0.296875 Z M 11.40625 0.296875" transform="translate(72.871 167.164)"/></g></g></g><g fill="#3E3094"><g><g><path d="M 14.40625 0.359375 C 11.914062 0.359375 9.734375 -0.1875 7.859375 -1.28125 C 5.992188 -2.382812 4.546875 -3.929688 3.515625 -5.921875 C 2.492188 -7.910156 1.984375 -10.25 1.984375 -12.9375 C 1.984375 -15.65625 2.492188 -18.003906 3.515625 -19.984375 C 4.546875 -21.960938 5.988281 -23.492188 7.84375 -24.578125 C 9.707031 -25.671875 11.894531 -26.21875 14.40625 -26.21875 C 16.925781 -26.21875 19.113281 -25.671875 20.96875 -24.578125 C 22.832031 -23.492188 24.273438 -21.960938 25.296875 -19.984375 C 26.328125 -18.003906 26.84375 -15.671875 26.84375 -12.984375 C 26.84375 -10.265625 26.328125 -7.910156 25.296875 -5.921875 C 24.273438 -3.929688 22.832031 -2.382812 20.96875 -1.28125 C 19.113281 -0.1875 16.925781 0.359375 14.40625 0.359375 Z M 14.40625 -3.671875 C 16.78125 -3.671875 18.628906 -4.488281 19.953125 -6.125 C 21.273438 -7.757812 21.9375 -10.03125 21.9375 -12.9375 C 21.9375 -15.875 21.28125 -18.148438 19.96875 -19.765625 C 18.65625 -21.378906 16.800781 -22.1875 14.40625 -22.1875 C 12.039062 -22.1875 10.195312 -21.378906 8.875 -19.765625 C 7.550781 -18.148438 6.890625 -15.875 6.890625 -12.9375 C 6.890625 -10.03125 7.550781 -7.757812 8.875 -6.125 C 10.195312 -4.488281 12.039062 -3.671875 14.40625 -3.671875 Z M 14.40625 -3.671875" transform="translate(100.776 167.164)"/></g></g></g><g fill="#3E3094"><g><g><path d="M 5.3125 0 C 3.65625 0 2.828125 -0.832031 2.828125 -2.5 L 2.828125 -23.359375 C 2.828125 -25.023438 3.65625 -25.859375 5.3125 -25.859375 L 12.4375 -25.859375 C 16.757812 -25.859375 20.097656 -24.742188 22.453125 -22.515625 C 24.816406 -20.285156 26 -17.09375 26 -12.9375 C 26 -8.8125 24.816406 -5.625 22.453125 -3.375 C 20.097656 -1.125 16.757812 0 12.4375 0 Z M 7.515625 -3.890625 L 12.140625 -3.890625 C 18.109375 -3.890625 21.09375 -6.90625 21.09375 -12.9375 C 21.09375 -18.957031 18.109375 -21.96875 12.140625 -21.96875 L 7.515625 -21.96875 Z M 7.515625 -3.890625" transform="translate(134.695 167.164)"/></g></g></g><g fill="#3E3094"><g><g><path d="M 14.40625 0.359375 C 11.914062 0.359375 9.734375 -0.1875 7.859375 -1.28125 C 5.992188 -2.382812 4.546875 -3.929688 3.515625 -5.921875 C 2.492188 -7.910156 1.984375 -10.25 1.984375 -12.9375 C 1.984375 -15.65625 2.492188 -18.003906 3.515625 -19.984375 C 4.546875 -21.960938 5.988281 -23.492188 7.84375 -24.578125 C 9.707031 -25.671875 11.894531 -26.21875 14.40625 -26.21875 C 16.925781 -26.21875 19.113281 -25.671875 20.96875 -24.578125 C 22.832031 -23.492188 24.273438 -21.960938 25.296875 -19.984375 C 26.328125 -18.003906 26.84375 -15.671875 26.84375 -12.984375 C 26.84375 -10.265625 26.328125 -7.910156 25.296875 -5.921875 C 24.273438 -3.929688 22.832031 -2.382812 20.96875 -1.28125 C 19.113281 -0.1875 16.925781 0.359375 14.40625 0.359375 Z M 14.40625 -3.671875 C 16.78125 -3.671875 18.628906 -4.488281 19.953125 -6.125 C 21.273438 -7.757812 21.9375 -10.03125 21.9375 -12.9375 C 21.9375 -15.875 21.28125 -18.148438 19.96875 -19.765625 C 18.65625 -21.378906 16.800781 -22.1875 14.40625 -22.1875 C 12.039062 -22.1875 10.195312 -21.378906 8.875 -19.765625 C 7.550781 -18.148438 6.890625 -15.875 6.890625 -12.9375 C 6.890625 -10.03125 7.550781 -7.757812 8.875 -6.125 C 10.195312 -4.488281 12.039062 -3.671875 14.40625 -3.671875 Z M 14.40625 -3.671875" transform="translate(167.77 167.164)"/></g></g></g><g fill="#3E3094"><g><g><path d="M 3.078125 0.296875 C 2.222656 0.296875 1.613281 0.00390625 1.25 -0.578125 C 0.882812 -1.171875 0.894531 -1.882812 1.28125 -2.71875 L 10.96875 -24.171875 C 11.28125 -24.878906 11.660156 -25.382812 12.109375 -25.6875 C 12.566406 -25.988281 13.085938 -26.140625 13.671875 -26.140625 C 14.234375 -26.140625 14.738281 -25.988281 15.1875 -25.6875 C 15.644531 -25.382812 16.035156 -24.878906 16.359375 -24.171875 L 26.078125 -2.71875 C 26.460938 -1.863281 26.484375 -1.144531 26.140625 -0.5625 C 25.804688 0.0078125 25.222656 0.296875 24.390625 0.296875 C 23.703125 0.296875 23.164062 0.128906 22.78125 -0.203125 C 22.40625 -0.535156 22.070312 -1.039062 21.78125 -1.71875 L 19.953125 -5.984375 L 7.328125 -5.984375 L 5.53125 -1.71875 C 5.21875 -1.007812 4.890625 -0.492188 4.546875 -0.171875 C 4.203125 0.140625 3.710938 0.296875 3.078125 0.296875 Z M 13.609375 -20.75 L 8.953125 -9.71875 L 18.34375 -9.71875 L 13.671875 -20.75 Z M 13.609375 -20.75" transform="translate(216.76 167.164)"/></g></g></g><g fill="#3E3094"><g><g><path d="M 5.171875 0.296875 C 3.609375 0.296875 2.828125 -0.507812 2.828125 -2.125 L 2.828125 -23.46875 C 2.828125 -25.0625 3.617188 -25.859375 5.203125 -25.859375 L 14.046875 -25.859375 C 16.878906 -25.859375 19.066406 -25.144531 20.609375 -23.71875 C 22.148438 -22.300781 22.921875 -20.320312 22.921875 -17.78125 C 22.921875 -15.238281 22.148438 -13.253906 20.609375 -11.828125 C 19.066406 -10.398438 16.878906 -9.6875 14.046875 -9.6875 L 7.515625 -9.6875 L 7.515625 -2.125 C 7.515625 -0.507812 6.734375 0.296875 5.171875 0.296875 Z M 7.515625 -13.390625 L 13.3125 -13.390625 C 16.6875 -13.390625 18.375 -14.851562 18.375 -17.78125 C 18.375 -20.695312 16.6875 -22.15625 13.3125 -22.15625 L 7.515625 -22.15625 Z M 7.515625 -13.390625" transform="translate(249.176 167.164)"/></g></g></g><g fill="#3E3094"><g><g><path d="M 5.171875 0.296875 C 3.609375 0.296875 2.828125 -0.507812 2.828125 -2.125 L 2.828125 -23.46875 C 2.828125 -25.0625 3.617188 -25.859375 5.203125 -25.859375 L 14.046875 -25.859375 C 16.878906 -25.859375 19.066406 -25.144531 20.609375 -23.71875 C 22.148438 -22.300781 22.921875 -20.320312 22.921875 -17.78125 C 22.921875 -15.238281 22.148438 -13.253906 20.609375 -11.828125 C 19.066406 -10.398438 16.878906 -9.6875 14.046875 -9.6875 L 7.515625 -9.6875 L 7.515625 -2.125 C 7.515625 -0.507812 6.734375 0.296875 5.171875 0.296875 Z M 7.515625 -13.390625 L 13.3125 -13.390625 C 16.6875 -13.390625 18.375 -14.851562 18.375 -17.78125 C 18.375 -20.695312 16.6875 -22.15625 13.3125 -22.15625 L 7.515625 -22.15625 Z M 7.515625 -13.390625" transform="translate(278.218 167.164)"/></g></g></g><g fill="#3E3094"><g><g><path d="M 10.8125 -0.734375 C 10.851562 -0.648438 10.875 -0.5625 10.875 -0.46875 C 10.875 -0.3125 10.8125 -0.179688 10.6875 -0.078125 C 10.570312 0.0234375 10.429688 0.078125 10.265625 0.078125 C 10.003906 0.078125 9.820312 -0.046875 9.71875 -0.296875 L 8.609375 -2.8125 L 2.734375 -2.8125 L 1.625 -0.296875 C 1.519531 -0.046875 1.335938 0.078125 1.078125 0.078125 C 0.910156 0.078125 0.765625 0.0234375 0.640625 -0.078125 C 0.515625 -0.191406 0.453125 -0.328125 0.453125 -0.484375 C 0.453125 -0.566406 0.472656 -0.648438 0.515625 -0.734375 L 4.96875 -10.640625 C 5.03125 -10.785156 5.125 -10.894531 5.25 -10.96875 C 5.375 -11.039062 5.507812 -11.078125 5.65625 -11.078125 C 5.8125 -11.078125 5.953125 -11.035156 6.078125 -10.953125 C 6.203125 -10.878906 6.296875 -10.773438 6.359375 -10.640625 Z M 3.203125 -3.875 L 8.140625 -3.875 L 5.671875 -9.46875 Z M 3.203125 -3.875" transform="translate(109.94 195.297)"/></g></g></g><g fill="#3E3094"><g><g><path d="M 7.265625 -11.0625 C 7.460938 -11.0625 7.613281 -11.003906 7.71875 -10.890625 C 7.832031 -10.773438 7.890625 -10.628906 7.890625 -10.453125 L 7.890625 -0.546875 C 7.890625 -0.359375 7.832031 -0.207031 7.71875 -0.09375 C 7.613281 0.0195312 7.460938 0.078125 7.265625 0.078125 C 7.066406 0.078125 6.910156 0.0195312 6.796875 -0.09375 C 6.691406 -0.207031 6.640625 -0.359375 6.640625 -0.546875 L 6.640625 -1.390625 C 6.410156 -0.910156 6.070312 -0.539062 5.625 -0.28125 C 5.1875 -0.0195312 4.671875 0.109375 4.078125 0.109375 C 3.410156 0.109375 2.820312 -0.0546875 2.3125 -0.390625 C 1.8125 -0.722656 1.421875 -1.1875 1.140625 -1.78125 C 0.859375 -2.375 0.71875 -3.066406 0.71875 -3.859375 C 0.71875 -4.640625 0.859375 -5.328125 1.140625 -5.921875 C 1.421875 -6.515625 1.8125 -6.972656 2.3125 -7.296875 C 2.820312 -7.617188 3.410156 -7.78125 4.078125 -7.78125 C 4.671875 -7.78125 5.1875 -7.648438 5.625 -7.390625 C 6.070312 -7.128906 6.410156 -6.757812 6.640625 -6.28125 L 6.640625 -10.453125 C 6.640625 -10.640625 6.691406 -10.785156 6.796875 -10.890625 C 6.910156 -11.003906 7.066406 -11.0625 7.265625 -11.0625 Z M 4.328125 -0.9375 C 5.066406 -0.9375 5.632812 -1.1875 6.03125 -1.6875 C 6.4375 -2.195312 6.640625 -2.910156 6.640625 -3.828125 C 6.640625 -4.753906 6.4375 -5.46875 6.03125 -5.96875 C 5.632812 -6.46875 5.066406 -6.71875 4.328125 -6.71875 C 3.585938 -6.71875 3.015625 -6.46875 2.609375 -5.96875 C 2.203125 -5.46875 2 -4.765625 2 -3.859375 C 2 -2.941406 2.203125 -2.222656 2.609375 -1.703125 C 3.015625 -1.191406 3.585938 -0.9375 4.328125 -0.9375 Z M 4.328125 -0.9375" transform="translate(122.04 195.297)"/></g></g></g><g fill="#3E3094"><g><g><path d="M 7.265625 -11.0625 C 7.460938 -11.0625 7.613281 -11.003906 7.71875 -10.890625 C 7.832031 -10.773438 7.890625 -10.628906 7.890625 -10.453125 L 7.890625 -0.546875 C 7.890625 -0.359375 7.832031 -0.207031 7.71875 -0.09375 C 7.613281 0.0195312 7.460938 0.078125 7.265625 0.078125 C 7.066406 0.078125 6.910156 0.0195312 6.796875 -0.09375 C 6.691406 -0.207031 6.640625 -0.359375 6.640625 -0.546875 L 6.640625 -1.390625 C 6.410156 -0.910156 6.070312 -0.539062 5.625 -0.28125 C 5.1875 -0.0195312 4.671875 0.109375 4.078125 0.109375 C 3.410156 0.109375 2.820312 -0.0546875 2.3125 -0.390625 C 1.8125 -0.722656 1.421875 -1.1875 1.140625 -1.78125 C 0.859375 -2.375 0.71875 -3.066406 0.71875 -3.859375 C 0.71875 -4.640625 0.859375 -5.328125 1.140625 -5.921875 C 1.421875 -6.515625 1.8125 -6.972656 2.3125 -7.296875 C 2.820312 -7.617188 3.410156 -7.78125 4.078125 -7.78125 C 4.671875 -7.78125 5.1875 -7.648438 5.625 -7.390625 C 6.070312 -7.128906 6.410156 -6.757812 6.640625 -6.28125 L 6.640625 -10.453125 C 6.640625 -10.640625 6.691406 -10.785156 6.796875 -10.890625 C 6.910156 -11.003906 7.066406 -11.0625 7.265625 -11.0625 Z M 4.328125 -0.9375 C 5.066406 -0.9375 5.632812 -1.1875 6.03125 -1.6875 C 6.4375 -2.195312 6.640625 -2.910156 6.640625 -3.828125 C 6.640625 -4.753906 6.4375 -5.46875 6.03125 -5.96875 C 5.632812 -6.46875 5.066406 -6.71875 4.328125 -6.71875 C 3.585938 -6.71875 3.015625 -6.46875 2.609375 -5.96875 C 2.203125 -5.46875 2 -4.765625 2 -3.859375 C 2 -2.941406 2.203125 -2.222656 2.609375 -1.703125 C 3.015625 -1.191406 3.585938 -0.9375 4.328125 -0.9375 Z M 4.328125 -0.9375" transform="translate(131.882 195.297)"/></g></g></g><g fill="#3E3094"><g><g><path d="M 8.21875 -10.8125 C 8.34375 -10.96875 8.492188 -11.046875 8.671875 -11.046875 C 8.816406 -11.046875 8.945312 -10.988281 9.0625 -10.875 C 9.175781 -10.757812 9.234375 -10.617188 9.234375 -10.453125 C 9.234375 -10.296875 9.1875 -10.164062 9.09375 -10.0625 L 5.3125 -5.28125 L 5.3125 -0.578125 C 5.3125 -0.367188 5.25 -0.207031 5.125 -0.09375 C 5.007812 0.0195312 4.859375 0.078125 4.671875 0.078125 C 4.484375 0.078125 4.328125 0.0195312 4.203125 -0.09375 C 4.085938 -0.207031 4.03125 -0.367188 4.03125 -0.578125 L 4.03125 -5.296875 L 0.25 -10.0625 C 0.144531 -10.175781 0.09375 -10.304688 0.09375 -10.453125 C 0.09375 -10.617188 0.148438 -10.757812 0.265625 -10.875 C 0.390625 -10.988281 0.53125 -11.046875 0.6875 -11.046875 C 0.863281 -11.046875 1.015625 -10.96875 1.140625 -10.8125 L 4.6875 -6.28125 Z M 8.21875 -10.8125" transform="translate(146.52 195.297)"/></g></g></g><g fill="#3E3094"><g><g><path d="M 4.3125 0.109375 C 3.59375 0.109375 2.960938 -0.0507812 2.421875 -0.375 C 1.878906 -0.695312 1.457031 -1.15625 1.15625 -1.75 C 0.863281 -2.34375 0.71875 -3.035156 0.71875 -3.828125 C 0.71875 -4.617188 0.863281 -5.3125 1.15625 -5.90625 C 1.457031 -6.507812 1.878906 -6.972656 2.421875 -7.296875 C 2.960938 -7.617188 3.59375 -7.78125 4.3125 -7.78125 C 5.03125 -7.78125 5.664062 -7.617188 6.21875 -7.296875 C 6.769531 -6.972656 7.191406 -6.507812 7.484375 -5.90625 C 7.773438 -5.3125 7.921875 -4.617188 7.921875 -3.828125 C 7.921875 -3.035156 7.773438 -2.34375 7.484375 -1.75 C 7.191406 -1.15625 6.769531 -0.695312 6.21875 -0.375 C 5.664062 -0.0507812 5.03125 0.109375 4.3125 0.109375 Z M 4.3125 -0.9375 C 5.0625 -0.9375 5.632812 -1.179688 6.03125 -1.671875 C 6.4375 -2.171875 6.640625 -2.890625 6.640625 -3.828125 C 6.640625 -4.753906 6.4375 -5.46875 6.03125 -5.96875 C 5.625 -6.476562 5.050781 -6.734375 4.3125 -6.734375 C 3.570312 -6.734375 3 -6.476562 2.59375 -5.96875 C 2.195312 -5.46875 2 -4.753906 2 -3.828125 C 2 -2.898438 2.195312 -2.1875 2.59375 -1.6875 C 2.988281 -1.1875 3.5625 -0.9375 4.3125 -0.9375 Z M 4.3125 -0.9375" transform="translate(156.658 195.297)"/></g></g></g><g fill="#3E3094"><g><g><path d="M 6.9375 -7.75 C 7.132812 -7.75 7.285156 -7.691406 7.390625 -7.578125 C 7.503906 -7.460938 7.5625 -7.3125 7.5625 -7.125 L 7.5625 -0.53125 C 7.5625 -0.351562 7.503906 -0.207031 7.390625 -0.09375 C 7.285156 0.0195312 7.132812 0.078125 6.9375 0.078125 C 6.75 0.078125 6.597656 0.0234375 6.484375 -0.078125 C 6.378906 -0.191406 6.328125 -0.335938 6.328125 -0.515625 L 6.328125 -1.296875 C 6.085938 -0.835938 5.75 -0.488281 5.3125 -0.25 C 4.882812 -0.0078125 4.398438 0.109375 3.859375 0.109375 C 2.960938 0.109375 2.285156 -0.140625 1.828125 -0.640625 C 1.367188 -1.148438 1.140625 -1.894531 1.140625 -2.875 L 1.140625 -7.125 C 1.140625 -7.3125 1.195312 -7.460938 1.3125 -7.578125 C 1.425781 -7.691406 1.582031 -7.75 1.78125 -7.75 C 1.976562 -7.75 2.128906 -7.691406 2.234375 -7.578125 C 2.347656 -7.460938 2.40625 -7.3125 2.40625 -7.125 L 2.40625 -2.90625 C 2.40625 -2.238281 2.535156 -1.742188 2.796875 -1.421875 C 3.066406 -1.109375 3.492188 -0.953125 4.078125 -0.953125 C 4.742188 -0.953125 5.28125 -1.164062 5.6875 -1.59375 C 6.09375 -2.03125 6.296875 -2.597656 6.296875 -3.296875 L 6.296875 -7.125 C 6.296875 -7.3125 6.351562 -7.460938 6.46875 -7.578125 C 6.582031 -7.691406 6.738281 -7.75 6.9375 -7.75 Z M 6.9375 -7.75" transform="translate(166.08 195.297)"/></g></g></g><g fill="#3E3094"><g><g><path d="M 4.921875 -7.75 C 5.359375 -7.769531 5.578125 -7.59375 5.578125 -7.21875 C 5.578125 -7.050781 5.53125 -6.914062 5.4375 -6.8125 C 5.34375 -6.71875 5.179688 -6.660156 4.953125 -6.640625 L 4.484375 -6.59375 C 3.785156 -6.53125 3.269531 -6.28125 2.9375 -5.84375 C 2.601562 -5.414062 2.4375 -4.910156 2.4375 -4.328125 L 2.4375 -0.546875 C 2.4375 -0.335938 2.378906 -0.179688 2.265625 -0.078125 C 2.148438 0.0234375 2 0.078125 1.8125 0.078125 C 1.625 0.078125 1.46875 0.0234375 1.34375 -0.078125 C 1.226562 -0.191406 1.171875 -0.347656 1.171875 -0.546875 L 1.171875 -7.125 C 1.171875 -7.320312 1.234375 -7.472656 1.359375 -7.578125 C 1.484375 -7.691406 1.632812 -7.75 1.8125 -7.75 C 1.976562 -7.75 2.117188 -7.691406 2.234375 -7.578125 C 2.347656 -7.472656 2.40625 -7.328125 2.40625 -7.140625 L 2.40625 -6.265625 C 2.613281 -6.722656 2.914062 -7.070312 3.3125 -7.3125 C 3.71875 -7.550781 4.179688 -7.691406 4.703125 -7.734375 Z M 4.921875 -7.75" transform="translate(175.594 195.297)"/></g></g></g><g fill="#3E3094"><g><g><path d="M 4.65625 0.078125 C 4.457031 0.078125 4.296875 0.0195312 4.171875 -0.09375 C 4.054688 -0.21875 4 -0.378906 4 -0.578125 L 4 -9.890625 L 0.65625 -9.890625 C 0.46875 -9.890625 0.320312 -9.9375 0.21875 -10.03125 C 0.113281 -10.125 0.0625 -10.257812 0.0625 -10.4375 C 0.0625 -10.613281 0.113281 -10.75 0.21875 -10.84375 C 0.320312 -10.9375 0.46875 -10.984375 0.65625 -10.984375 L 8.640625 -10.984375 C 8.828125 -10.984375 8.972656 -10.9375 9.078125 -10.84375 C 9.179688 -10.75 9.234375 -10.613281 9.234375 -10.4375 C 9.234375 -10.257812 9.179688 -10.125 9.078125 -10.03125 C 8.972656 -9.9375 8.828125 -9.890625 8.640625 -9.890625 L 5.296875 -9.890625 L 5.296875 -0.578125 C 5.296875 -0.378906 5.238281 -0.21875 5.125 -0.09375 C 5.007812 0.0195312 4.851562 0.078125 4.65625 0.078125 Z M 4.65625 0.078125" transform="translate(186.666 195.297)"/></g></g></g><g fill="#3E3094"><g><g><path d="M 4.3125 0.109375 C 3.59375 0.109375 2.960938 -0.0507812 2.421875 -0.375 C 1.878906 -0.695312 1.457031 -1.15625 1.15625 -1.75 C 0.863281 -2.34375 0.71875 -3.035156 0.71875 -3.828125 C 0.71875 -4.617188 0.863281 -5.3125 1.15625 -5.90625 C 1.457031 -6.507812 1.878906 -6.972656 2.421875 -7.296875 C 2.960938 -7.617188 3.59375 -7.78125 4.3125 -7.78125 C 5.03125 -7.78125 5.664062 -7.617188 6.21875 -7.296875 C 6.769531 -6.972656 7.191406 -6.507812 7.484375 -5.90625 C 7.773438 -5.3125 7.921875 -4.617188 7.921875 -3.828125 C 7.921875 -3.035156 7.773438 -2.34375 7.484375 -1.75 C 7.191406 -1.15625 6.769531 -0.695312 6.21875 -0.375 C 5.664062 -0.0507812 5.03125 0.109375 4.3125 0.109375 Z M 4.3125 -0.9375 C 5.0625 -0.9375 5.632812 -1.179688 6.03125 -1.671875 C 6.4375 -2.171875 6.640625 -2.890625 6.640625 -3.828125 C 6.640625 -4.753906 6.4375 -5.46875 6.03125 -5.96875 C 5.625 -6.476562 5.050781 -6.734375 4.3125 -6.734375 C 3.570312 -6.734375 3 -6.476562 2.59375 -5.96875 C 2.195312 -5.46875 2 -4.753906 2 -3.828125 C 2 -2.898438 2.195312 -2.1875 2.59375 -1.6875 C 2.988281 -1.1875 3.5625 -0.9375 4.3125 -0.9375 Z M 4.3125 -0.9375" transform="translate(196.757 195.297)"/></g></g></g><g fill="#3E3094"><g><g><path d="M 7.265625 -11.0625 C 7.460938 -11.0625 7.613281 -11.003906 7.71875 -10.890625 C 7.832031 -10.773438 7.890625 -10.628906 7.890625 -10.453125 L 7.890625 -0.546875 C 7.890625 -0.359375 7.832031 -0.207031 7.71875 -0.09375 C 7.613281 0.0195312 7.460938 0.078125 7.265625 0.078125 C 7.066406 0.078125 6.910156 0.0195312 6.796875 -0.09375 C 6.691406 -0.207031 6.640625 -0.359375 6.640625 -0.546875 L 6.640625 -1.390625 C 6.410156 -0.910156 6.070312 -0.539062 5.625 -0.28125 C 5.1875 -0.0195312 4.671875 0.109375 4.078125 0.109375 C 3.410156 0.109375 2.820312 -0.0546875 2.3125 -0.390625 C 1.8125 -0.722656 1.421875 -1.1875 1.140625 -1.78125 C 0.859375 -2.375 0.71875 -3.066406 0.71875 -3.859375 C 0.71875 -4.640625 0.859375 -5.328125 1.140625 -5.921875 C 1.421875 -6.515625 1.8125 -6.972656 2.3125 -7.296875 C 2.820312 -7.617188 3.410156 -7.78125 4.078125 -7.78125 C 4.671875 -7.78125 5.1875 -7.648438 5.625 -7.390625 C 6.070312 -7.128906 6.410156 -6.757812 6.640625 -6.28125 L 6.640625 -10.453125 C 6.640625 -10.640625 6.691406 -10.785156 6.796875 -10.890625 C 6.910156 -11.003906 7.066406 -11.0625 7.265625 -11.0625 Z M 4.328125 -0.9375 C 5.066406 -0.9375 5.632812 -1.1875 6.03125 -1.6875 C 6.4375 -2.195312 6.640625 -2.910156 6.640625 -3.828125 C 6.640625 -4.753906 6.4375 -5.46875 6.03125 -5.96875 C 5.632812 -6.46875 5.066406 -6.71875 4.328125 -6.71875 C 3.585938 -6.71875 3.015625 -6.46875 2.609375 -5.96875 C 2.203125 -5.46875 2 -4.765625 2 -3.859375 C 2 -2.941406 2.203125 -2.222656 2.609375 -1.703125 C 3.015625 -1.191406 3.585938 -0.9375 4.328125 -0.9375 Z M 4.328125 -0.9375" transform="translate(206.179 195.297)"/></g></g></g><g fill="#3E3094"><g><g><path d="M 4.3125 0.109375 C 3.59375 0.109375 2.960938 -0.0507812 2.421875 -0.375 C 1.878906 -0.695312 1.457031 -1.15625 1.15625 -1.75 C 0.863281 -2.34375 0.71875 -3.035156 0.71875 -3.828125 C 0.71875 -4.617188 0.863281 -5.3125 1.15625 -5.90625 C 1.457031 -6.507812 1.878906 -6.972656 2.421875 -7.296875 C 2.960938 -7.617188 3.59375 -7.78125 4.3125 -7.78125 C 5.03125 -7.78125 5.664062 -7.617188 6.21875 -7.296875 C 6.769531 -6.972656 7.191406 -6.507812 7.484375 -5.90625 C 7.773438 -5.3125 7.921875 -4.617188 7.921875 -3.828125 C 7.921875 -3.035156 7.773438 -2.34375 7.484375 -1.75 C 7.191406 -1.15625 6.769531 -0.695312 6.21875 -0.375 C 5.664062 -0.0507812 5.03125 0.109375 4.3125 0.109375 Z M 4.3125 -0.9375 C 5.0625 -0.9375 5.632812 -1.179688 6.03125 -1.671875 C 6.4375 -2.171875 6.640625 -2.890625 6.640625 -3.828125 C 6.640625 -4.753906 6.4375 -5.46875 6.03125 -5.96875 C 5.625 -6.476562 5.050781 -6.734375 4.3125 -6.734375 C 3.570312 -6.734375 3 -6.476562 2.59375 -5.96875 C 2.195312 -5.46875 2 -4.753906 2 -3.828125 C 2 -2.898438 2.195312 -2.1875 2.59375 -1.6875 C 2.988281 -1.1875 3.5625 -0.9375 4.3125 -0.9375 Z M 4.3125 -0.9375" transform="translate(216.02 195.297)"/></g></g></g><g fill="#3E3094"><g><g><path d="M 9.5625 -11.0625 C 9.75 -11.0625 9.894531 -11 10 -10.875 C 10.101562 -10.757812 10.15625 -10.601562 10.15625 -10.40625 L 10.15625 -0.578125 C 10.15625 -0.378906 10.097656 -0.21875 9.984375 -0.09375 C 9.878906 0.0195312 9.726562 0.078125 9.53125 0.078125 C 9.332031 0.078125 9.160156 -0.0078125 9.015625 -0.1875 L 2.5625 -8.828125 L 2.5625 -0.578125 C 2.5625 -0.378906 2.503906 -0.21875 2.390625 -0.09375 C 2.285156 0.0195312 2.140625 0.078125 1.953125 0.078125 C 1.765625 0.078125 1.617188 0.0195312 1.515625 -0.09375 C 1.410156 -0.21875 1.359375 -0.378906 1.359375 -0.578125 L 1.359375 -10.40625 C 1.359375 -10.601562 1.410156 -10.757812 1.515625 -10.875 C 1.628906 -11 1.785156 -11.0625 1.984375 -11.0625 C 2.191406 -11.0625 2.367188 -10.972656 2.515625 -10.796875 L 8.953125 -2.15625 L 8.953125 -10.40625 C 8.953125 -10.601562 9.003906 -10.757812 9.109375 -10.875 C 9.222656 -11 9.375 -11.0625 9.5625 -11.0625 Z M 9.5625 -11.0625" transform="translate(230.238 195.297)"/></g></g></g><g fill="#3E3094"><g><g><path d="M 4.3125 0.109375 C 3.59375 0.109375 2.960938 -0.0507812 2.421875 -0.375 C 1.878906 -0.695312 1.457031 -1.15625 1.15625 -1.75 C 0.863281 -2.34375 0.71875 -3.035156 0.71875 -3.828125 C 0.71875 -4.617188 0.863281 -5.3125 1.15625 -5.90625 C 1.457031 -6.507812 1.878906 -6.972656 2.421875 -7.296875 C 2.960938 -7.617188 3.59375 -7.78125 4.3125 -7.78125 C 5.03125 -7.78125 5.664062 -7.617188 6.21875 -7.296875 C 6.769531 -6.972656 7.191406 -6.507812 7.484375 -5.90625 C 7.773438 -5.3125 7.921875 -4.617188 7.921875 -3.828125 C 7.921875 -3.035156 7.773438 -2.34375 7.484375 -1.75 C 7.191406 -1.15625 6.769531 -0.695312 6.21875 -0.375 C 5.664062 -0.0507812 5.03125 0.109375 4.3125 0.109375 Z M 4.3125 -0.9375 C 5.0625 -0.9375 5.632812 -1.179688 6.03125 -1.671875 C 6.4375 -2.171875 6.640625 -2.890625 6.640625 -3.828125 C 6.640625 -4.753906 6.4375 -5.46875 6.03125 -5.96875 C 5.625 -6.476562 5.050781 -6.734375 4.3125 -6.734375 C 3.570312 -6.734375 3 -6.476562 2.59375 -5.96875 C 2.195312 -5.46875 2 -4.753906 2 -3.828125 C 2 -2.898438 2.195312 -2.1875 2.59375 -1.6875 C 2.988281 -1.1875 3.5625 -0.9375 4.3125 -0.9375 Z M 4.3125 -0.9375" transform="translate(242.525 195.297)"/></g></g></g><g fill="#3E3094"><g><g><path d="M 11.546875 -7.34375 C 11.648438 -7.59375 11.820312 -7.71875 12.0625 -7.71875 C 12.21875 -7.71875 12.359375 -7.664062 12.484375 -7.5625 C 12.609375 -7.457031 12.671875 -7.328125 12.671875 -7.171875 C 12.671875 -7.097656 12.65625 -7.019531 12.625 -6.9375 L 10.03125 -0.390625 C 9.96875 -0.253906 9.875 -0.144531 9.75 -0.0625 C 9.632812 0.0078125 9.503906 0.046875 9.359375 0.046875 C 9.222656 0.046875 9.09375 0.0078125 8.96875 -0.0625 C 8.851562 -0.144531 8.765625 -0.253906 8.703125 -0.390625 L 6.5625 -5.859375 L 4.421875 -0.390625 C 4.367188 -0.253906 4.28125 -0.144531 4.15625 -0.0625 C 4.03125 0.0078125 3.894531 0.046875 3.75 0.046875 C 3.613281 0.046875 3.484375 0.0078125 3.359375 -0.0625 C 3.234375 -0.144531 3.140625 -0.253906 3.078125 -0.390625 L 0.5 -6.921875 C 0.46875 -7.003906 0.453125 -7.078125 0.453125 -7.140625 C 0.453125 -7.304688 0.519531 -7.445312 0.65625 -7.5625 C 0.800781 -7.675781 0.957031 -7.734375 1.125 -7.734375 C 1.375 -7.734375 1.550781 -7.609375 1.65625 -7.359375 L 3.78125 -1.609375 L 5.984375 -7.3125 C 6.046875 -7.445312 6.128906 -7.550781 6.234375 -7.625 C 6.347656 -7.695312 6.46875 -7.734375 6.59375 -7.734375 C 6.726562 -7.734375 6.847656 -7.695312 6.953125 -7.625 C 7.066406 -7.550781 7.148438 -7.445312 7.203125 -7.3125 L 9.390625 -1.625 Z M 11.546875 -7.34375" transform="translate(251.946 195.297)"/></g></g></g></svg>